<svg width="58" height="58" viewBox="0 0 58 58" fill="none" xmlns="http://www.w3.org/2000/svg">
<rect x="1" y="1" width="56" height="56" rx="8" fill="white"/>
<g opacity="0.8">
<path d="M12 37L18.8787 30.1213C19.1572 29.8428 19.488 29.6218 19.8519 29.471C20.2159 29.3202 20.606 29.2426 21 29.2426C21.394 29.2426 21.7841 29.3202 22.1481 29.471C22.512 29.6218 22.8428 29.8428 23.1213 30.1213L30 37M28 35L29.8787 33.1213C30.1572 32.8428 30.488 32.6218 30.8519 32.471C31.2159 32.3202 31.606 32.2426 32 32.2426C32.394 32.2426 32.7841 32.3202 33.1481 32.471C33.512 32.6218 33.8428 32.8428 34.1213 33.1213L38 37M14 42H36C36.5304 42 37.0391 41.7893 37.4142 41.4142C37.7893 41.0391 38 40.5304 38 40V24C38 23.4696 37.7893 22.9609 37.4142 22.5858C37.0391 22.2107 36.5304 22 36 22H14C13.4696 22 12.9609 22.2107 12.5858 22.5858C12.2107 22.9609 12 23.4696 12 24V40C12 40.5304 12.2107 41.0391 12.5858 41.4142C12.9609 41.7893 13.4696 42 14 42ZM28 27H28.0107V27.0107H28V27ZM28.5 27C28.5 27.1326 28.4473 27.2598 28.3536 27.3536C28.2598 27.4473 28.1326 27.5 28 27.5C27.8674 27.5 27.7402 27.4473 27.6464 27.3536C27.5527 27.2598 27.5 27.1326 27.5 27C27.5 26.8674 27.5527 26.7402 27.6464 26.6464C27.7402 26.5527 27.8674 26.5 28 26.5C28.1326 26.5 28.2598 26.5527 28.3536 26.6464C28.4473 26.7402 28.5 26.8674 28.5 27V27Z" stroke="#292929" stroke-width="1.5" stroke-linecap="round" stroke-linejoin="round"/>
</g>
<path fill-rule="evenodd" clip-rule="evenodd" d="M39 11.875C34.5125 11.875 30.875 15.5125 30.875 20C30.875 24.4875 34.5125 28.125 39 28.125C43.4875 28.125 47.125 24.4875 47.125 20C47.125 15.5125 43.4875 11.875 39 11.875ZM39.625 17.5C39.625 17.3342 39.5592 17.1753 39.4419 17.0581C39.3247 16.9408 39.1658 16.875 39 16.875C38.8342 16.875 38.6753 16.9408 38.5581 17.0581C38.4408 17.1753 38.375 17.3342 38.375 17.5V19.375H36.5C36.3342 19.375 36.1753 19.4408 36.0581 19.5581C35.9408 19.6753 35.875 19.8342 35.875 20C35.875 20.1658 35.9408 20.3247 36.0581 20.4419C36.1753 20.5592 36.3342 20.625 36.5 20.625H38.375V22.5C38.375 22.6658 38.4408 22.8247 38.5581 22.9419C38.6753 23.0592 38.8342 23.125 39 23.125C39.1658 23.125 39.3247 23.0592 39.4419 22.9419C39.5592 22.8247 39.625 22.6658 39.625 22.5V20.625H41.5C41.6658 20.625 41.8247 20.5592 41.9419 20.4419C42.0592 20.3247 42.125 20.1658 42.125 20C42.125 19.8342 42.0592 19.6753 41.9419 19.5581C41.8247 19.4408 41.6658 19.375 41.5 19.375H39.625V17.5Z" fill="#31A683"/>
<rect x="1" y="1" width="56" height="56" rx="8" stroke="#292929" stroke-opacity="0.32" stroke-linecap="round" stroke-linejoin="round" stroke-dasharray="3 3"/>
</svg>
