<svg width="17" height="32" viewBox="0 0 17 32" fill="none" xmlns="http://www.w3.org/2000/svg">
<path d="M8.51189 24.5509C6.95851 24.5509 5.53194 24.1771 4.23217 23.4294C2.9324 22.6818 1.9021 21.6497 1.14126 20.3332C0.38042 19.0004 0 17.497 0 15.823C0 14.1651 0.38042 12.678 1.14126 11.3615C1.9021 10.0287 2.9324 8.9885 4.23217 8.24085C5.53194 7.49321 6.95851 7.11938 8.51189 7.11938C10.0811 7.11938 11.5077 7.49321 12.7916 8.24085C14.0914 8.9885 15.1138 10.0287 15.8587 11.3615C16.6196 12.678 17 14.1651 17 15.823C17 17.497 16.6196 19.0004 15.8587 20.3332C15.1138 21.6497 14.0914 22.6818 12.7916 23.4294C11.4918 24.1771 10.0653 24.5509 8.51189 24.5509ZM8.51189 21.5034C9.51049 21.5034 10.3902 21.2759 11.1511 20.8208C11.9119 20.3495 12.5063 19.6831 12.9343 18.8217C13.3622 17.9602 13.5762 16.9607 13.5762 15.823C13.5762 14.6852 13.3622 13.6938 12.9343 12.8486C12.5063 11.9872 11.9119 11.329 11.1511 10.8739C10.3902 10.4188 9.51049 10.1912 8.51189 10.1912C7.51329 10.1912 6.62564 10.4188 5.84895 10.8739C5.08811 11.329 4.49371 11.9872 4.06574 12.8486C3.63776 13.6938 3.42378 14.6852 3.42378 15.823C3.42378 16.9607 3.63776 17.9602 4.06574 18.8217C4.49371 19.6831 5.08811 20.3495 5.84895 20.8208C6.62564 21.2759 7.51329 21.5034 8.51189 21.5034Z" fill="#015850"/>
<path fill-rule="evenodd" clip-rule="evenodd" d="M1.92547 0C1.56186 0 1.3234 0.377711 1.5037 0.693468C2.26454 2.00997 3.29485 3.04205 4.59461 3.7897C5.89438 4.53734 7.32095 4.91116 8.87433 4.91116C10.4277 4.91116 11.8543 4.53734 13.1541 3.7897C14.4538 3.04205 15.4762 2.00997 16.2212 0.693468C16.4014 0.377715 16.1631 0 15.7996 0H13.0482C12.8902 0 12.7429 0.0757068 12.6421 0.197281C12.3189 0.587265 11.9427 0.915191 11.5135 1.18106C10.7527 1.63615 9.87294 1.8637 8.87433 1.8637C7.87573 1.8637 6.98809 1.63615 6.2114 1.18106C5.78223 0.915191 5.40601 0.587265 5.08275 0.197281C4.98198 0.0757069 4.83464 0 4.67674 0H1.92547Z" fill="#015850"/>
<path fill-rule="evenodd" clip-rule="evenodd" d="M15.7996 32C16.1631 32 16.4014 31.6223 16.2212 31.3066C15.4603 29.9901 14.43 28.958 13.1303 28.2103C11.8305 27.4627 10.4039 27.0889 8.85056 27.0889C7.29718 27.0889 5.8706 27.4627 4.57084 28.2103C3.27107 28.958 2.24869 29.9901 1.5037 31.3066C1.3234 31.6223 1.56171 32 1.92526 32H4.67673C4.83464 32 4.98198 31.9243 5.08275 31.8027C5.40601 31.4127 5.78223 31.0848 6.2114 30.819C6.97224 30.3639 7.85196 30.1363 8.85056 30.1363C9.84916 30.1363 10.7368 30.3639 11.5135 30.819C11.9426 31.0848 12.3188 31.4127 12.6421 31.8027C12.7429 31.9243 12.8902 32 13.0481 32H15.7996Z" fill="#015850"/>
</svg>
