<svg width="75" height="32" viewBox="0 0 75 32" fill="none" xmlns="http://www.w3.org/2000/svg">
<path d="M0.749756 16.2371C0.749756 14.7722 1.07833 13.4638 1.73547 12.3118C2.4069 11.1455 3.31404 10.2424 4.4569 9.60243C5.61404 8.9482 6.9069 8.62109 8.33547 8.62109C10.0069 8.62109 11.4712 9.04776 12.7283 9.90109C13.7996 10.6283 14.596 11.593 15.1175 12.7953C15.2532 13.1081 15.0124 13.4424 14.6714 13.4424H12.2281C12.0361 13.4424 11.8634 13.3311 11.7677 13.1646C11.4377 12.5908 11.0008 12.1501 10.4569 11.8424C9.84261 11.4869 9.12833 11.3091 8.31404 11.3091C7.44261 11.3091 6.66404 11.5153 5.97833 11.9278C5.3069 12.326 4.77833 12.8949 4.39261 13.6344C4.02118 14.374 3.83547 15.2415 3.83547 16.2371C3.83547 17.2184 4.02118 18.086 4.39261 18.8398C4.77833 19.5793 5.3069 20.1553 5.97833 20.5678C6.66404 20.966 7.44261 21.1651 8.31404 21.1651C9.12833 21.1651 9.84261 20.9873 10.4569 20.6318C11.0009 20.3118 11.4378 19.8639 11.7678 19.2883C11.8633 19.1218 12.0361 19.0104 12.2281 19.0104H14.6735C15.0138 19.0104 15.2546 19.3437 15.1204 19.6565C14.599 20.8723 13.8017 21.8445 12.7283 22.5731C11.4855 23.4122 10.0212 23.8318 8.33547 23.8318C6.9069 23.8318 5.61404 23.5118 4.4569 22.8718C3.31404 22.2175 2.4069 21.3144 1.73547 20.1624C1.07833 19.0104 0.749756 17.702 0.749756 16.2371ZM20.9264 20.8358C20.9264 21.1119 21.1503 21.3358 21.4264 21.3358H25.355C25.6311 21.3358 25.855 21.5596 25.855 21.8358V23.2038C25.855 23.4799 25.6311 23.7038 25.355 23.7038H18.4264C18.1503 23.7038 17.9264 23.4799 17.9264 23.2038V9.31309C17.9264 9.03695 18.1503 8.81309 18.4264 8.81309H20.4264C20.7026 8.81309 20.9264 9.03695 20.9264 9.31309V20.8358Z" fill="white"/>
<path d="M35.2073 23.8534C33.8073 23.8534 32.5216 23.5263 31.3502 22.8721C30.1787 22.2179 29.2502 21.3148 28.5645 20.1628C27.8787 18.9965 27.5359 17.681 27.5359 16.2161C27.5359 14.7654 27.8787 13.4641 28.5645 12.3121C29.2502 11.1459 30.1787 10.2357 31.3502 9.58143C32.5216 8.92721 33.8073 8.6001 35.2073 8.6001C36.6216 8.6001 37.9073 8.92721 39.0645 9.58143C40.2359 10.2357 41.1573 11.1459 41.8287 12.3121C42.5145 13.4641 42.8573 14.7654 42.8573 16.2161C42.8573 17.681 42.5145 18.9965 41.8287 20.1628C41.1573 21.3148 40.2359 22.2179 39.0645 22.8721C37.893 23.5263 36.6073 23.8534 35.2073 23.8534ZM35.2073 21.1868C36.1073 21.1868 36.9002 20.9877 37.5859 20.5894C38.2716 20.177 38.8073 19.5939 39.193 18.8401C39.5787 18.0863 39.7716 17.2117 39.7716 16.2161C39.7716 15.2205 39.5787 14.353 39.193 13.6134C38.8073 12.8597 38.2716 12.2837 37.5859 11.8854C36.9002 11.4872 36.1073 11.2881 35.2073 11.2881C34.3073 11.2881 33.5073 11.4872 32.8073 11.8854C32.1216 12.2837 31.5859 12.8597 31.2002 13.6134C30.8145 14.353 30.6216 15.2205 30.6216 16.2161C30.6216 17.2117 30.8145 18.0863 31.2002 18.8401C31.5859 19.5939 32.1216 20.177 32.8073 20.5894C33.5073 20.9877 34.3073 21.1868 35.2073 21.1868Z" fill="white"/>
<path d="M44.7974 16.2371C44.7974 14.7722 45.126 13.4638 45.7831 12.3118C46.4546 11.1455 47.3617 10.2424 48.5046 9.60243C49.6617 8.9482 50.9546 8.62109 52.3831 8.62109C54.0546 8.62109 55.5189 9.04776 56.776 9.90109C57.8473 10.6283 58.6437 11.593 59.1652 12.7953C59.3008 13.1081 59.0601 13.4424 58.7191 13.4424H56.2757C56.0837 13.4424 55.911 13.3311 55.8153 13.1646C55.4854 12.5908 55.0484 12.1501 54.5046 11.8424C53.8903 11.4869 53.176 11.3091 52.3617 11.3091C51.4903 11.3091 50.7117 11.5153 50.026 11.9278C49.3546 12.326 48.826 12.8949 48.4403 13.6344C48.0688 14.374 47.8831 15.2415 47.8831 16.2371C47.8831 17.2184 48.0688 18.086 48.4403 18.8398C48.826 19.5793 49.3546 20.1553 50.026 20.5678C50.7117 20.966 51.4903 21.1651 52.3617 21.1651C53.176 21.1651 53.8903 20.9873 54.5046 20.6318C55.0485 20.3118 55.4855 19.8639 55.8155 19.2883C55.911 19.1218 56.0837 19.0104 56.2757 19.0104H58.7211C59.0615 19.0104 59.3023 19.3437 59.1681 19.6565C58.6467 20.8723 57.8493 21.8445 56.776 22.5731C55.5331 23.4122 54.0688 23.8318 52.3831 23.8318C50.9546 23.8318 49.6617 23.5118 48.5046 22.8718C47.3617 22.2175 46.4546 21.3144 45.7831 20.1624C45.126 19.0104 44.7974 17.702 44.7974 16.2371ZM70.6536 23.7038C70.5039 23.7038 70.362 23.6367 70.267 23.5209L65.8608 18.1498C65.5629 17.7868 64.9742 17.9973 64.9742 18.4669V23.2038C64.9742 23.4799 64.7503 23.7038 64.4742 23.7038H62.4742C62.1981 23.7038 61.9742 23.4799 61.9742 23.2038V9.31309C61.9742 9.03695 62.1981 8.81309 62.4742 8.81309H64.4742C64.7503 8.81309 64.9742 9.03695 64.9742 9.31309V14.0857C64.9742 14.556 65.5646 14.7661 65.8618 14.4016L70.267 8.99718C70.362 8.88069 70.5043 8.81309 70.6546 8.81309H72.9687C73.393 8.81309 73.6245 9.30829 73.3523 9.63381L68.1366 15.8721C67.9808 16.0584 67.9814 16.3298 68.1382 16.5154L73.5151 22.8811C73.7896 23.2062 73.5586 23.7038 73.1331 23.7038H70.6536Z" fill="white"/>
<path fill-rule="evenodd" clip-rule="evenodd" d="M29.2576 2.37036C28.9381 2.37036 28.7291 2.70177 28.8911 2.97718C29.5768 4.12918 30.5054 5.03229 31.6768 5.68651C32.8483 6.34073 34.134 6.66784 35.534 6.66784C36.934 6.66784 38.2197 6.34073 39.3911 5.68651C40.5625 5.03229 41.484 4.12918 42.1554 2.97718C42.3173 2.70172 42.1084 2.37036 41.7889 2.37036H39.316C39.1606 2.37036 39.0155 2.44388 38.9139 2.56149C38.6261 2.89462 38.2923 3.17541 37.9125 3.40384C37.2268 3.80207 36.434 4.00118 35.534 4.00118C34.634 4.00118 33.834 3.80207 33.134 3.40384C32.7542 3.17541 32.4204 2.89462 32.1326 2.56149C32.0311 2.44388 31.8859 2.37036 31.7305 2.37036H29.2576Z" fill="white"/>
<path fill-rule="evenodd" clip-rule="evenodd" d="M41.7889 30.3717C42.1084 30.3717 42.3173 30.0403 42.1554 29.7649C41.4697 28.6129 40.5411 27.7098 39.3697 27.0556C38.1983 26.4013 36.9125 26.0742 35.5125 26.0742C34.1125 26.0742 32.8268 26.4013 31.6554 27.0556C30.484 27.7098 29.5625 28.6129 28.8911 29.7649C28.7291 30.0403 28.9381 30.3717 29.2576 30.3717H31.7305C31.8859 30.3717 32.0311 30.2982 32.1327 30.1806C32.4204 29.8474 32.7542 29.5666 33.134 29.3382C33.8197 28.94 34.6125 28.7409 35.5125 28.7409C36.4125 28.7409 37.2125 28.94 37.9125 29.3382C38.2923 29.5666 38.626 29.8474 38.9138 30.1806C39.0154 30.2982 39.1606 30.3717 39.316 30.3717H41.7889Z" fill="white"/>
</svg>
