<svg width="177" height="80" viewBox="0 0 177 80" fill="none" xmlns="http://www.w3.org/2000/svg">
<path d="M1.75317 35.8516C1.75317 32.4048 2.52121 29.3261 4.05727 26.6156C5.62673 23.8715 7.74716 21.7465 10.4186 20.2407C13.1234 18.7013 16.1454 17.9316 19.4847 17.9316C23.3916 17.9316 26.8144 18.9356 29.753 20.9434C32.1367 22.5721 33.9381 24.7073 35.1572 27.3489C35.5849 28.2756 34.8631 29.276 33.8426 29.276H28.7933C28.2166 29.276 27.7001 28.9392 27.4034 28.4446C26.6451 27.1808 25.6585 26.203 24.4435 25.5112C23.0076 24.6746 21.338 24.2563 19.4346 24.2563C17.3977 24.2563 15.5778 24.7416 13.9749 25.712C12.4054 26.649 11.1699 27.9876 10.2683 29.7277C9.4001 31.4678 8.966 33.5092 8.966 35.8516C8.966 38.1607 9.4001 40.202 10.2683 41.9756C11.1699 43.7157 12.4054 45.071 13.9749 46.0414C15.5778 46.9784 17.3977 47.4469 19.4346 47.4469C21.338 47.4469 23.0076 47.0286 24.4435 46.192C25.6588 45.4724 26.6457 44.478 27.404 43.2088C27.6999 42.7138 28.2166 42.3771 28.7933 42.3771H33.8486C34.8674 42.3771 35.5892 43.3743 35.1664 44.3013C33.9471 46.9742 32.1426 49.1271 29.753 50.7599C26.8478 52.7343 23.425 53.7214 19.4847 53.7214C16.1454 53.7214 13.1234 52.9685 10.4186 51.4626C7.74716 49.9233 5.62673 47.7983 4.05727 45.0877C2.52121 42.3771 1.75317 39.2984 1.75317 35.8516ZM48.9159 46.3501C48.9159 47.1777 49.5868 47.8485 50.4143 47.8485H58.938C59.7655 47.8485 60.4364 48.5194 60.4364 49.3469V51.9219C60.4364 52.7494 59.7655 53.4203 58.938 53.4203H43.4018C42.5743 53.4203 41.9034 52.7494 41.9034 51.9219V19.8818C41.9034 19.0543 42.5743 18.3834 43.4018 18.3834H47.4175C48.2451 18.3834 48.9159 19.0543 48.9159 19.8818V46.3501Z" fill="#257E64"/>
<path d="M82.2977 53.7711C79.0252 53.7711 76.0199 53.0014 73.2817 51.462C70.5435 49.9227 68.373 47.7977 66.7701 45.0871C65.1673 42.3431 64.3658 39.2477 64.3658 35.8009C64.3658 32.3875 65.1673 29.3256 66.7701 26.615C68.373 23.8709 70.5435 21.7292 73.2817 20.1899C76.0199 18.6505 79.0252 17.8809 82.2977 17.8809C85.6036 17.8809 88.6089 18.6505 91.3138 20.1899C94.052 21.7292 96.2058 23.8709 97.7752 26.615C99.3781 29.3256 100.18 32.3875 100.18 35.8009C100.18 39.2477 99.3781 42.3431 97.7752 45.0871C96.2058 47.7977 94.052 49.9227 91.3138 51.462C88.5756 53.0014 85.5702 53.7711 82.2977 53.7711ZM82.2977 47.4965C84.4015 47.4965 86.2548 47.028 87.8576 46.0911C89.4605 45.1206 90.7127 43.7486 91.6143 41.975C92.5159 40.2014 92.9667 38.1433 92.9667 35.8009C92.9667 33.4584 92.5159 31.4171 91.6143 29.6769C90.7127 27.9033 89.4605 26.548 87.8576 25.6111C86.2548 24.6741 84.4015 24.2056 82.2977 24.2056C80.194 24.2056 78.324 24.6741 76.6878 25.6111C75.0849 26.548 73.8327 27.9033 72.9311 29.6769C72.0295 31.4171 71.5787 33.4584 71.5787 35.8009C71.5787 38.1433 72.0295 40.2014 72.9311 41.975C73.8327 43.7486 75.0849 45.1206 76.6878 46.0911C78.324 47.028 80.194 47.4965 82.2977 47.4965Z" fill="#257E64"/>
<path d="M104.713 35.8516C104.713 32.4048 105.481 29.3261 107.017 26.6156C108.586 23.8715 110.707 21.7465 113.378 20.2407C116.083 18.7013 119.105 17.9316 122.444 17.9316C126.351 17.9316 129.774 18.9356 132.713 20.9434C135.096 22.5721 136.898 24.7073 138.117 27.3489C138.544 28.2756 137.823 29.276 136.802 29.276H131.753C131.176 29.276 130.66 28.9392 130.363 28.4446C129.605 27.1808 128.618 26.203 127.403 25.5112C125.967 24.6746 124.298 24.2563 122.394 24.2563C120.357 24.2563 118.537 24.7416 116.934 25.712C115.365 26.649 114.13 27.9876 113.228 29.7277C112.36 31.4678 111.926 33.5092 111.926 35.8516C111.926 38.1607 112.36 40.202 113.228 41.9756C114.13 43.7157 115.365 45.071 116.934 46.0414C118.537 46.9784 120.357 47.4469 122.394 47.4469C124.298 47.4469 125.967 47.0286 127.403 46.192C128.618 45.4724 129.605 44.478 130.364 43.2088C130.659 42.7138 131.176 42.3771 131.753 42.3771H136.808C137.827 42.3771 138.549 43.3743 138.126 44.3013C136.907 46.9742 135.102 49.1271 132.713 50.7599C129.807 52.7343 126.385 53.7214 122.444 53.7214C119.105 53.7214 116.083 52.9685 113.378 51.4626C110.707 49.9233 108.586 47.7983 107.017 45.0877C105.481 42.3771 104.713 39.2984 104.713 35.8516ZM165.31 53.4203C164.86 53.4203 164.433 53.2176 164.149 52.8685L154.536 41.0731C153.645 39.9804 151.876 40.6101 151.876 42.0197V51.9219C151.876 52.7494 151.205 53.4203 150.377 53.4203H146.362C145.534 53.4203 144.863 52.7494 144.863 51.9219V19.8818C144.863 19.0543 145.534 18.3834 146.362 18.3834H150.377C151.205 18.3834 151.876 19.0543 151.876 19.8818V29.8634C151.876 31.2753 153.65 31.9037 154.539 30.8064L164.149 18.9388C164.433 18.5875 164.861 18.3834 165.313 18.3834H169.871C171.14 18.3834 171.835 19.8628 171.024 20.8392L159.437 34.789C158.974 35.3462 158.976 36.1546 159.442 36.7095L171.399 50.9587C172.217 51.9337 171.524 53.4203 170.251 53.4203H165.31Z" fill="#257E64"/>
<path fill-rule="evenodd" clip-rule="evenodd" d="M68.3974 3.22656C67.6457 3.22656 67.1532 4.00536 67.5324 4.65436C69.1353 7.36495 71.3058 9.48992 74.044 11.0293C76.7822 12.5686 79.7875 13.3383 83.06 13.3383C86.3325 13.3383 89.3379 12.5686 92.0761 11.0293C94.8143 9.48992 96.9681 7.36495 98.5375 4.65436C98.9166 4.00522 98.4242 3.22656 97.6725 3.22656H92.066C91.5986 3.22656 91.1634 3.44962 90.8532 3.79925C90.2053 4.52946 89.4608 5.14914 88.6199 5.65828C87.0171 6.59528 85.1638 7.06377 83.06 7.06377C80.9563 7.06377 79.0863 6.59528 77.4501 5.65828C76.6091 5.14914 75.8647 4.52946 75.2168 3.79925C74.9066 3.44962 74.4714 3.22656 74.0039 3.22656H68.3974Z" fill="#257E64"/>
<path fill-rule="evenodd" clip-rule="evenodd" d="M97.6725 69.1098C98.4242 69.1098 98.9167 68.3311 98.5375 67.682C96.9347 64.9714 94.7642 62.8464 92.026 61.3071C89.2878 59.7677 86.2824 58.998 83.0099 58.998C79.7375 58.998 76.7321 59.7677 73.9939 61.3071C71.2557 62.8464 69.1019 64.9714 67.5324 67.682C67.1531 68.331 67.6456 69.1098 68.3974 69.1098H74.0039C74.4714 69.1098 74.9066 68.8867 75.2168 68.5371C75.8647 67.8068 76.6091 67.1872 77.4501 66.678C79.0529 65.7411 80.9062 65.2726 83.0099 65.2726C85.1137 65.2726 86.9837 65.7411 88.6199 66.678C89.4607 67.1872 90.2051 67.8068 90.853 68.5371C91.1633 68.8867 91.5985 69.1098 92.0659 69.1098H97.6725Z" fill="#257E64"/>
<path d="M122.85 67.7181C122.213 67.7181 121.724 67.1849 121.316 66.6961C121.211 66.5697 121.086 66.4558 120.942 66.3545C120.483 66.0292 119.885 65.8665 119.15 65.8665C118.633 65.8665 118.19 65.9445 117.82 66.1005C117.45 66.2564 117.167 66.4681 116.971 66.7355C116.775 67.0029 116.675 67.3081 116.67 67.6513C116.67 67.9365 116.735 68.1838 116.864 68.3932C116.998 68.6027 117.178 68.7809 117.406 68.928C117.633 69.0706 117.885 69.1909 118.161 69.289C118.437 69.387 118.716 69.4695 118.996 69.5363L120.28 69.8572C120.797 69.9775 121.294 70.1401 121.77 70.3451C122.252 70.5501 122.682 70.8086 123.061 71.1205C123.444 71.4325 123.747 71.809 123.97 72.2502C124.193 72.6914 124.304 73.2083 124.304 73.801C124.304 74.6031 124.099 75.3095 123.689 75.92C123.279 76.526 122.686 77.0006 121.911 77.3438C121.14 77.6825 120.206 77.8518 119.11 77.8518C118.045 77.8518 117.12 77.6869 116.336 77.3572C115.556 77.0274 114.946 76.5461 114.504 75.9133C114.288 75.5994 114.12 75.2514 114.003 74.8695C113.795 74.197 114.381 73.6005 115.085 73.6005C115.734 73.6005 116.222 74.1471 116.593 74.6794C116.62 74.7174 116.648 74.7544 116.677 74.7903C116.935 75.1067 117.272 75.3429 117.686 75.4989C118.105 75.6548 118.573 75.7328 119.09 75.7328C119.629 75.7328 120.102 75.6526 120.507 75.4922C120.917 75.3273 121.238 75.1 121.47 74.8104C121.701 74.5162 121.82 74.1731 121.824 73.7809C121.82 73.4244 121.715 73.1303 121.51 72.8986C121.305 72.6624 121.017 72.4663 120.648 72.3104C120.282 72.1499 119.854 72.0073 119.364 71.8826L117.807 71.4815C116.679 71.1918 115.788 70.7529 115.133 70.1646C114.482 69.5719 114.157 68.7854 114.157 67.805C114.157 66.9984 114.375 66.2921 114.812 65.686C115.253 65.08 115.852 64.6098 116.61 64.2756C117.368 63.9369 118.225 63.7676 119.184 63.7676C120.155 63.7676 121.006 63.9369 121.737 64.2756C122.472 64.6098 123.049 65.0755 123.468 65.6727C123.646 65.9247 123.788 66.1928 123.893 66.4771C124.134 67.1303 123.546 67.7181 122.85 67.7181Z" fill="#31A683"/>
<path d="M130.953 77.8451C129.924 77.8451 129.035 77.6312 128.286 77.2034C127.542 76.7711 126.969 76.1606 126.568 75.3719C126.167 74.5786 125.967 73.645 125.967 72.5711C125.967 71.5149 126.167 70.588 126.568 69.7903C126.974 68.9882 127.54 68.3643 128.266 67.9186C128.993 67.4686 129.846 67.2435 130.826 67.2435C131.459 67.2435 132.056 67.346 132.618 67.551C133.184 67.7515 133.683 68.0635 134.115 68.4868C134.552 68.9102 134.895 69.4494 135.144 70.1045C135.394 70.7551 135.519 71.5305 135.519 72.4307C135.519 72.8405 135.187 73.1727 134.777 73.1727H127.919C127.468 73.1727 127.103 72.8075 127.103 72.3572C127.103 71.9068 127.468 71.5416 127.919 71.5416H131.914C132.622 71.5416 133.236 70.9272 132.899 70.305C132.702 69.9396 132.428 69.6522 132.076 69.4427C131.729 69.2333 131.323 69.1285 130.86 69.1285C130.365 69.1285 129.931 69.2489 129.556 69.4895C129.182 69.7257 128.89 70.0376 128.681 70.4253C128.476 70.8086 128.371 71.2297 128.366 71.6887V73.1125C128.366 73.7096 128.476 74.2221 128.694 74.6499C128.912 75.0733 129.218 75.3986 129.61 75.6259C130.002 75.8487 130.461 75.9601 130.987 75.9601C131.339 75.9601 131.657 75.9111 131.943 75.813C132.228 75.7105 132.475 75.5613 132.685 75.3652C133.061 75.0129 133.519 74.677 134.031 74.7346L134.084 74.7405C134.793 74.8203 135.285 75.5256 134.877 76.1107C134.793 76.23 134.702 76.3447 134.603 76.4547C134.206 76.8959 133.698 77.2391 133.079 77.4842C132.46 77.7248 131.751 77.8451 130.953 77.8451Z" fill="#31A683"/>
<path d="M138.776 63.9547C139.444 63.9547 139.986 64.4964 139.986 65.1646V76.4347C139.986 77.1029 139.444 77.6446 138.776 77.6446C138.108 77.6446 137.566 77.1029 137.566 76.4347V65.1646C137.566 64.4964 138.108 63.9547 138.776 63.9547Z" fill="#31A683"/>
<path d="M143.684 63.9547C144.352 63.9547 144.894 64.4964 144.894 65.1646V76.4347C144.894 77.1029 144.352 77.6446 143.684 77.6446C143.016 77.6446 142.474 77.1029 142.474 76.4347V65.1646C142.474 64.4964 143.016 63.9547 143.684 63.9547Z" fill="#31A683"/>
<path d="M151.928 77.8451C150.898 77.8451 150.009 77.6312 149.26 77.2034C148.516 76.7711 147.944 76.1606 147.543 75.3719C147.141 74.5786 146.941 73.645 146.941 72.5711C146.941 71.5149 147.141 70.588 147.543 69.7903C147.948 68.9882 148.514 68.3643 149.24 67.9186C149.967 67.4686 150.82 67.2435 151.801 67.2435C152.433 67.2435 153.031 67.346 153.592 67.551C154.158 67.7515 154.657 68.0635 155.089 68.4868C155.526 68.9102 155.869 69.4494 156.119 70.1045C156.368 70.7551 156.493 71.5305 156.493 72.4307C156.493 72.8405 156.161 73.1727 155.751 73.1727H148.893C148.442 73.1727 148.077 72.8075 148.077 72.3572C148.077 71.9068 148.442 71.5416 148.893 71.5416H152.888C153.596 71.5416 154.211 70.9272 153.873 70.305C153.677 69.9396 153.403 69.6522 153.051 69.4427C152.703 69.2333 152.297 69.1285 151.834 69.1285C151.339 69.1285 150.905 69.2489 150.531 69.4895C150.156 69.7257 149.864 70.0376 149.655 70.4253C149.45 70.8086 149.345 71.2297 149.341 71.6887V73.1125C149.341 73.7096 149.45 74.2221 149.668 74.6499C149.887 75.0733 150.192 75.3986 150.584 75.6259C150.976 75.8487 151.435 75.9601 151.961 75.9601C152.313 75.9601 152.632 75.9111 152.917 75.813C153.202 75.7105 153.449 75.5613 153.659 75.3652C154.035 75.0129 154.493 74.677 155.006 74.7346L155.058 74.7405C155.767 74.8203 156.259 75.5256 155.851 76.1107C155.768 76.23 155.676 76.3447 155.577 76.4547C155.181 76.8959 154.673 77.2391 154.053 77.4842C153.434 77.7248 152.725 77.8451 151.928 77.8451Z" fill="#31A683"/>
<path d="M159.75 77.6446C159.082 77.6446 158.54 77.1029 158.54 76.4347V68.5503C158.54 67.9024 159.065 67.3772 159.713 67.3772H160.031C160.503 67.3772 160.886 67.7603 160.886 68.2328V69.0267C160.886 69.0608 160.914 69.0884 160.948 69.0884C160.975 69.0884 160.999 69.0709 161.007 69.0454C161.196 68.4736 161.513 68.0312 161.956 67.7181C162.415 67.3928 162.939 67.2301 163.527 67.2301C163.661 67.2301 163.81 67.2368 163.975 67.2502C164.221 67.2632 164.396 67.4745 164.396 67.7211V69.0253C164.396 69.2687 164.15 69.4583 163.908 69.4293C163.69 69.3981 163.478 69.3826 163.273 69.3826C162.832 69.3826 162.435 69.4784 162.083 69.67C161.735 69.8572 161.461 70.1178 161.261 70.4521C161.06 70.7863 160.96 71.1718 160.96 71.6085V76.4347C160.96 77.1029 160.418 77.6446 159.75 77.6446Z" fill="#31A683"/>
<path d="M173.683 68.9335C174.033 69.5056 173.549 70.1533 172.882 70.226L172.622 70.2544C172.213 70.299 171.841 70.0255 171.585 69.7034C171.433 69.5073 171.228 69.3491 170.97 69.2288C170.712 69.1085 170.395 69.0483 170.021 69.0483C169.517 69.0483 169.094 69.1575 168.751 69.3759C168.412 69.5942 168.245 69.8772 168.249 70.2248C168.245 70.5234 168.354 70.7662 168.577 70.9534C168.804 71.1406 169.179 71.2943 169.7 71.4146L171.451 71.789C172.423 71.9984 173.145 72.3304 173.617 72.785C174.094 73.2395 174.335 73.8344 174.339 74.5697C174.335 75.2159 174.145 75.7863 173.771 76.2809C173.401 76.7711 172.886 77.1544 172.227 77.4307C171.567 77.707 170.81 77.8451 169.954 77.8451C168.697 77.8451 167.686 77.5822 166.919 77.0563C166.521 76.7806 166.206 76.4487 165.975 76.0608C165.614 75.4561 166.14 74.7869 166.84 74.7194C167.452 74.6605 167.967 75.1282 168.425 75.5373C168.477 75.5834 168.532 75.6263 168.59 75.666C168.938 75.9022 169.39 76.0203 169.947 76.0203C170.522 76.0203 170.983 75.9022 171.331 75.666C171.683 75.4298 171.859 75.1379 171.859 74.7903C171.859 74.4962 171.745 74.2533 171.518 74.0617C171.295 73.8701 170.948 73.723 170.475 73.6205L168.724 73.2529C167.739 73.0479 167.011 72.7025 166.538 72.2168C166.066 71.7266 165.832 71.1072 165.836 70.3585C165.832 69.7257 166.003 69.1776 166.351 68.7141C166.703 68.2462 167.191 67.8852 167.815 67.6312C168.443 67.3727 169.167 67.2435 169.987 67.2435C171.191 67.2435 172.138 67.4998 172.828 68.0122C173.182 68.2727 173.466 68.5798 173.683 68.9335Z" fill="#31A683"/>
</svg>
